<svg xmlns="http://www.w3.org/2000/svg" width="48" height="48">
<g>
 <circle fill="#000" r="24" cy="24" cx="24"></circle>
 <circle fill="#fff" r="22" cy="24" cx="24"></circle>
</g>
<g>
 <polyline points="30.5 17.92 25 10.42 19.5 17.92"/>
 <path class="cls-2" d="m11.81,27.06h-3.01v-2.23h8.73v2.23h-3.03v8.94h-2.69v-8.94Z"/>
 <path class="cls-2" d="m19.49,30.36c0-3.66,2.07-5.73,5.11-5.73s5.12,2.08,5.12,5.73-2.07,5.85-5.12,5.85-5.11-2.19-5.11-5.85Zm7.5,0c0-2.16-.92-3.43-2.39-3.43s-2.37,1.27-2.37,3.43.9,3.54,2.37,3.54,2.39-1.38,2.39-3.54Z"/>
 <path class="cls-2" d="m32.54,24.83h3.93c2.45,0,4.47.88,4.47,3.64s-2.04,3.82-4.41,3.82h-1.31v3.71h-2.68v-11.17Zm3.86,5.35c1.3,0,1.93-.61,1.93-1.71s-.72-1.52-2.01-1.52h-1.1v3.22h1.17Z"/>
</g>
</svg>